<svg width="32" height="32" viewBox="0 0 32 32" fill="none" xmlns="http://www.w3.org/2000/svg">
<path d="M26.0133 7.79999L18.0933 3.22666C16.8 2.47999 15.2 2.47999 13.8933 3.22666L5.98664 7.79999C4.69331 8.54666 3.89331 9.93332 3.89331 11.44V20.56C3.89331 22.0533 4.69331 23.44 5.98664 24.2L13.9066 28.7733C15.2 29.52 16.8 29.52 18.1066 28.7733L26.0266 24.2C27.32 23.4533 28.12 22.0667 28.12 20.56V11.44C28.1066 9.93332 27.3066 8.55999 26.0133 7.79999ZM15 10.3333C15 9.78666 15.4533 9.33332 16 9.33332C16.5466 9.33332 17 9.78666 17 10.3333V17.3333C17 17.88 16.5466 18.3333 16 18.3333C15.4533 18.3333 15 17.88 15 17.3333V10.3333ZM17.2266 22.1733C17.16 22.3333 17.0666 22.48 16.9466 22.6133C16.6933 22.8667 16.36 23 16 23C15.8266 23 15.6533 22.96 15.4933 22.8933C15.32 22.8267 15.1866 22.7333 15.0533 22.6133C14.9333 22.48 14.84 22.3333 14.76 22.1733C14.6933 22.0133 14.6666 21.84 14.6666 21.6667C14.6666 21.32 14.8 20.9733 15.0533 20.72C15.1866 20.6 15.32 20.5067 15.4933 20.44C15.9866 20.2267 16.5733 20.3467 16.9466 20.72C17.0666 20.8533 17.16 20.9867 17.2266 21.16C17.2933 21.32 17.3333 21.4933 17.3333 21.6667C17.3333 21.84 17.2933 22.0133 17.2266 22.1733Z" fill="#253059"/>
</svg>
