<svg width="28" height="28" viewBox="0 0 28 28" fill="none" xmlns="http://www.w3.org/2000/svg">
<g clip-path="url(#clip0_2_50)">
<path d="M14 17.4904C12.067 17.4904 10.5 19.0574 10.5 20.9904V27.9904H17.5V20.9904C17.5 19.0574 15.933 17.4904 14 17.4904Z" fill="#253059"/>
<path d="M19.8334 20.9909V27.9909H24.5C26.433 27.9909 28 26.4239 28 24.4909V13.8498C28.0003 13.2437 27.7647 12.6612 27.3431 12.2258L17.4289 1.50756C15.6795 -0.385174 12.727 -0.501385 10.8343 1.24796C10.7444 1.33108 10.6578 1.41765 10.5747 1.50756L0.677852 12.2223C0.243524 12.6595 -0.00016398 13.2509 8.27875e-08 13.8673V24.4909C8.27875e-08 26.4239 1.56702 27.9909 3.5 27.9909H8.16665V20.9909C8.18847 17.8096 10.757 15.2118 13.8581 15.1369C17.063 15.0596 19.8089 17.7017 19.8334 20.9909Z" fill="#253059"/>
<path d="M14 17.4904C12.067 17.4904 10.5 19.0574 10.5 20.9904V27.9904H17.5V20.9904C17.5 19.0574 15.933 17.4904 14 17.4904Z" fill="#253059"/>
</g>
<defs>
<clipPath id="clip0_2_50">
<rect width="28" height="28" fill="white"/>
</clipPath>
</defs>
</svg>
