<svg width="26" height="26" viewBox="0 0 26 26" fill="none" xmlns="http://www.w3.org/2000/svg">
<path d="M13.0217 22.2408C10.4975 22.2408 7.97335 21.84 5.57919 21.0383C4.66919 20.7242 3.97585 20.085 3.67252 19.2508C3.35835 18.4167 3.46669 17.4958 3.96502 16.6725L5.21085 14.6033C5.47085 14.17 5.70919 13.3033 5.70919 12.7942V9.66333C5.70919 5.63333 8.99169 2.35083 13.0217 2.35083C17.0517 2.35083 20.3342 5.63333 20.3342 9.66333V12.7942C20.3342 13.2925 20.5725 14.17 20.8325 14.6142L22.0675 16.6725C22.5334 17.4525 22.62 18.395 22.3059 19.2508C21.9917 20.1067 21.3092 20.7567 20.4534 21.0383C18.07 21.84 15.5459 22.2408 13.0217 22.2408ZM13.0217 3.97583C9.89086 3.97583 7.33419 6.52166 7.33419 9.66333V12.7942C7.33419 13.585 7.00919 14.755 6.60835 15.4375L5.36252 17.5067C5.12419 17.9075 5.05919 18.33 5.20002 18.6875C5.33002 19.0558 5.65502 19.3375 6.09919 19.4892C10.6275 21.0058 15.4267 21.0058 19.955 19.4892C20.345 19.3592 20.6484 19.0667 20.7892 18.6767C20.93 18.2867 20.8975 17.8642 20.6809 17.5067L19.435 15.4375C19.0234 14.7333 18.7092 13.5742 18.7092 12.7833V9.66333C18.7092 6.52166 16.1634 3.97583 13.0217 3.97583Z" fill="#2853BF"/>
<path d="M15.0367 4.26834C14.9609 4.26834 14.8851 4.2575 14.8092 4.23584C14.4951 4.14917 14.1917 4.08417 13.8992 4.04084C12.9784 3.92167 12.0901 3.98667 11.2559 4.23584C10.9526 4.33334 10.6276 4.23584 10.4217 4.00834C10.2159 3.78084 10.1509 3.45584 10.2701 3.16334C10.7142 2.02584 11.7976 1.27834 13.0326 1.27834C14.2676 1.27834 15.3509 2.015 15.7951 3.16334C15.9034 3.45584 15.8492 3.78084 15.6434 4.00834C15.4809 4.18167 15.2534 4.26834 15.0367 4.26834Z" fill="#2853BF"/>
<path d="M13.0217 24.7108C11.9492 24.7108 10.9092 24.2775 10.1509 23.5192C9.39256 22.7608 8.95923 21.7208 8.95923 20.6483H10.5842C10.5842 21.2875 10.8442 21.9158 11.2992 22.3708C11.7542 22.8258 12.3826 23.0858 13.0217 23.0858C14.3651 23.0858 15.4592 21.9917 15.4592 20.6483H17.0842C17.0842 22.8908 15.2642 24.7108 13.0217 24.7108Z" fill="#2853BF"/>
</svg>
