<svg width="28" height="28" viewBox="0 0 28 28" fill="none" xmlns="http://www.w3.org/2000/svg">
<path opacity="0.4" d="M8.75 5.25001H8.45833V2.33334C8.45833 1.85501 8.06167 1.45834 7.58333 1.45834C7.105 1.45834 6.70833 1.85501 6.70833 2.33334V5.25001H6.41667C4.56167 5.25001 3.5 6.31168 3.5 8.16668V15.1667C3.5 17.0217 4.56167 18.0833 6.41667 18.0833H6.70833V25.6667C6.70833 26.145 7.105 26.5417 7.58333 26.5417C8.06167 26.5417 8.45833 26.145 8.45833 25.6667V18.0833H8.75C10.605 18.0833 11.6667 17.0217 11.6667 15.1667V8.16668C11.6667 6.31168 10.605 5.25001 8.75 5.25001Z" fill="#253059"/>
<path d="M21.5834 9.91668H21.2917V2.33334C21.2917 1.85501 20.895 1.45834 20.4167 1.45834C19.9384 1.45834 19.5417 1.85501 19.5417 2.33334V9.91668H19.25C17.395 9.91668 16.3334 10.9783 16.3334 12.8333V19.8333C16.3334 21.6883 17.395 22.75 19.25 22.75H19.5417V25.6667C19.5417 26.145 19.9384 26.5417 20.4167 26.5417C20.895 26.5417 21.2917 26.145 21.2917 25.6667V22.75H21.5834C23.4384 22.75 24.5 21.6883 24.5 19.8333V12.8333C24.5 10.9783 23.4384 9.91668 21.5834 9.91668Z" fill="#253059"/>
</svg>
