<svg width="34" height="34" viewBox="0 0 34 34" fill="none" xmlns="http://www.w3.org/2000/svg">
<path d="M24.0834 4.95834H9.91671C5.66671 4.95834 2.83337 7.08334 2.83337 12.0417V21.9583C2.83337 26.9167 5.66671 29.0417 9.91671 29.0417H24.0834C28.3334 29.0417 31.1667 26.9167 31.1667 21.9583V12.0417C31.1667 7.08334 28.3334 4.95834 24.0834 4.95834ZM24.7492 13.5858L20.315 17.1275C19.38 17.8783 18.19 18.2467 17 18.2467C15.81 18.2467 14.6059 17.8783 13.685 17.1275L9.25087 13.5858C8.79754 13.2175 8.72671 12.5375 9.08087 12.0842C9.44921 11.6308 10.115 11.5458 10.5684 11.9142L15.0025 15.4558C16.0792 16.32 17.9067 16.32 18.9834 15.4558L23.4175 11.9142C23.8709 11.5458 24.5509 11.6167 24.905 12.0842C25.2734 12.5375 25.2025 13.2175 24.7492 13.5858Z" fill="#253059"/>
</svg>
