<svg width="34" height="34" viewBox="0 0 34 34" fill="none" xmlns="http://www.w3.org/2000/svg">
<path d="M24.0833 4.95833H9.91658C5.66659 4.95833 2.83325 7.08333 2.83325 12.0417V21.9583C2.83325 26.9167 5.66659 29.0417 9.91658 29.0417H24.0833C28.3333 29.0417 31.1666 26.9167 31.1666 21.9583V12.0417C31.1666 7.08333 28.3333 4.95833 24.0833 4.95833ZM24.7491 13.5858L20.3149 17.1275C19.3799 17.8783 18.1899 18.2467 16.9999 18.2467C15.8099 18.2467 14.6058 17.8783 13.6849 17.1275L9.25075 13.5858C8.79742 13.2175 8.72658 12.5375 9.08075 12.0842C9.44908 11.6308 10.1149 11.5458 10.5683 11.9142L15.0024 15.4558C16.0791 16.32 17.9066 16.32 18.9833 15.4558L23.4174 11.9142C23.8708 11.5458 24.5508 11.6167 24.9049 12.0842C25.2733 12.5375 25.2024 13.2175 24.7491 13.5858Z" fill="#2853BF"/>
</svg>
